<svg id="visual" viewBox="0 0 900 600" width="900" height="600" xmlns="http://www.w3.org/2000/svg" xmlns:xlink="http://www.w3.org/1999/xlink" version="1.1"><rect x="0" y="0" width="900" height="600" fill="#C62368"></rect><defs><linearGradient id="grad1_0" x1="33.3%" y1="100%" x2="100%" y2="0%"><stop offset="20%" stop-color="#fbae3c" stop-opacity="1"></stop><stop offset="80%" stop-color="#fbae3c" stop-opacity="1"></stop></linearGradient></defs><defs><linearGradient id="grad1_1" x1="33.3%" y1="100%" x2="100%" y2="0%"><stop offset="20%" stop-color="#fbae3c" stop-opacity="1"></stop><stop offset="80%" stop-color="#f2654c" stop-opacity="1"></stop></linearGradient></defs><defs><linearGradient id="grad1_2" x1="33.3%" y1="100%" x2="100%" y2="0%"><stop offset="20%" stop-color="#c62368" stop-opacity="1"></stop><stop offset="80%" stop-color="#f2654c" stop-opacity="1"></stop></linearGradient></defs><defs><linearGradient id="grad2_0" x1="0%" y1="100%" x2="66.7%" y2="0%"><stop offset="20%" stop-color="#fbae3c" stop-opacity="1"></stop><stop offset="80%" stop-color="#fbae3c" stop-opacity="1"></stop></linearGradient></defs><defs><linearGradient id="grad2_1" x1="0%" y1="100%" x2="66.7%" y2="0%"><stop offset="20%" stop-color="#f2654c" stop-opacity="1"></stop><stop offset="80%" stop-color="#fbae3c" stop-opacity="1"></stop></linearGradient></defs><defs><linearGradient id="grad2_2" x1="0%" y1="100%" x2="66.7%" y2="0%"><stop offset="20%" stop-color="#f2654c" stop-opacity="1"></stop><stop offset="80%" stop-color="#c62368" stop-opacity="1"></stop></linearGradient></defs><g transform="translate(900, 600)"><path d="M-405.6 0C-414.4 -51.2 -423.3 -102.4 -385.8 -125.3C-348.3 -148.3 -264.5 -143 -229.8 -166.9C-195 -190.9 -209.3 -244.2 -194.6 -267.8C-179.8 -291.4 -135.9 -285.4 -98.6 -303.4C-61.3 -321.4 -30.6 -363.5 0 -405.6L0 0Z" fill="#e1425a"></path><path d="M-270.4 0C-276.3 -34.1 -282.2 -68.3 -257.2 -83.6C-232.2 -98.9 -176.3 -95.3 -153.2 -111.3C-130 -127.3 -139.6 -162.8 -129.7 -178.5C-119.8 -194.3 -90.6 -190.2 -65.7 -202.3C-40.9 -214.3 -20.4 -242.3 0 -270.4L0 0Z" fill="#fb8a40"></path><path d="M-135.2 0C-138.1 -17.1 -141.1 -34.1 -128.6 -41.8C-116.1 -49.4 -88.2 -47.7 -76.6 -55.6C-65 -63.6 -69.8 -81.4 -64.9 -89.3C-59.9 -97.1 -45.3 -95.1 -32.9 -101.1C-20.4 -107.1 -10.2 -121.2 0 -135.2L0 0Z" fill="#fbae3c"></path></g><g transform="translate(0, 0)"><path d="M405.6 0C374.7 35.1 343.8 70.3 330 107.2C316.2 144.2 319.5 183 309 224.5C298.6 266 274.5 310.3 238.4 328.2C202.3 346.1 154.2 337.7 112.5 346.2C70.7 354.7 35.4 380.2 0 405.6L0 0Z" fill="#e1425a"></path><path d="M270.4 0C249.8 23.4 229.2 46.8 220 71.5C210.8 96.1 213 122 206 149.7C199.1 177.4 183 206.8 158.9 218.8C134.9 230.7 102.8 225.1 75 230.8C47.2 236.5 23.6 253.4 0 270.4L0 0Z" fill="#fb8a40"></path><path d="M135.2 0C124.9 11.7 114.6 23.4 110 35.7C105.4 48.1 106.5 61 103 74.8C99.5 88.7 91.5 103.4 79.5 109.4C67.4 115.4 51.4 112.6 37.5 115.4C23.6 118.2 11.8 126.7 0 135.2L0 0Z" fill="#fbae3c"></path></g></svg>