<svg id="visual" viewBox="0 0 960 540" width="960" height="540" xmlns="http://www.w3.org/2000/svg" xmlns:xlink="http://www.w3.org/1999/xlink" version="1.1"><path d="M0 385L22.8 382.8C45.7 380.7 91.3 376.3 137 377.2C182.7 378 228.3 384 274 386.5C319.7 389 365.3 388 411.2 381C457 374 503 361 548.8 354.3C594.7 347.7 640.3 347.3 686 352.8C731.7 358.3 777.3 369.7 823 376.3C868.7 383 914.3 385 937.2 386L960 387L960 541L937.2 541C914.3 541 868.7 541 823 541C777.3 541 731.7 541 686 541C640.3 541 594.7 541 548.8 541C503 541 457 541 411.2 541C365.3 541 319.7 541 274 541C228.3 541 182.7 541 137 541C91.3 541 45.7 541 22.8 541L0 541Z" fill="#fbbf24"></path><path d="M0 379L22.8 377C45.7 375 91.3 371 137 378.3C182.7 385.7 228.3 404.3 274 409.3C319.7 414.3 365.3 405.7 411.2 401.8C457 398 503 399 548.8 397.2C594.7 395.3 640.3 390.7 686 393C731.7 395.3 777.3 404.7 823 406.2C868.7 407.7 914.3 401.3 937.2 398.2L960 395L960 541L937.2 541C914.3 541 868.7 541 823 541C777.3 541 731.7 541 686 541C640.3 541 594.7 541 548.8 541C503 541 457 541 411.2 541C365.3 541 319.7 541 274 541C228.3 541 182.7 541 137 541C91.3 541 45.7 541 22.8 541L0 541Z" fill="#ff942f"></path><path d="M0 441L22.8 435.3C45.7 429.7 91.3 418.3 137 415.3C182.7 412.3 228.3 417.7 274 417.5C319.7 417.3 365.3 411.7 411.2 416C457 420.3 503 434.7 548.8 441.3C594.7 448 640.3 447 686 447.5C731.7 448 777.3 450 823 444C868.7 438 914.3 424 937.2 417L960 410L960 541L937.2 541C914.3 541 868.7 541 823 541C777.3 541 731.7 541 686 541C640.3 541 594.7 541 548.8 541C503 541 457 541 411.2 541C365.3 541 319.7 541 274 541C228.3 541 182.7 541 137 541C91.3 541 45.7 541 22.8 541L0 541Z" fill="#fa6a43"></path><path d="M0 451L22.8 452.7C45.7 454.3 91.3 457.7 137 462.8C182.7 468 228.3 475 274 478.3C319.7 481.7 365.3 481.3 411.2 480.5C457 479.7 503 478.3 548.8 473.2C594.7 468 640.3 459 686 453.5C731.7 448 777.3 446 823 447.2C868.7 448.3 914.3 452.7 937.2 454.8L960 457L960 541L937.2 541C914.3 541 868.7 541 823 541C777.3 541 731.7 541 686 541C640.3 541 594.7 541 548.8 541C503 541 457 541 411.2 541C365.3 541 319.7 541 274 541C228.3 541 182.7 541 137 541C91.3 541 45.7 541 22.8 541L0 541Z" fill="#e64357"></path><path d="M0 478L22.8 479.3C45.7 480.7 91.3 483.3 137 484.8C182.7 486.3 228.3 486.7 274 486.2C319.7 485.7 365.3 484.3 411.2 485C457 485.7 503 488.3 548.8 487.7C594.7 487 640.3 483 686 486.5C731.7 490 777.3 501 823 504.5C868.7 508 914.3 504 937.2 502L960 500L960 541L937.2 541C914.3 541 868.7 541 823 541C777.3 541 731.7 541 686 541C640.3 541 594.7 541 548.8 541C503 541 457 541 411.2 541C365.3 541 319.7 541 274 541C228.3 541 182.7 541 137 541C91.3 541 45.7 541 22.8 541L0 541Z" fill="#c62368"></path></svg>