<svg id="visual" viewBox="0 0 900 450" width="900" height="450" xmlns="http://www.w3.org/2000/svg" xmlns:xlink="http://www.w3.org/1999/xlink" version="1.1"><rect x="0" y="0" width="900" height="450" fill="#fbbf24"></rect><path d="M0 151L21.5 151.5C43 152 86 153 128.8 152.3C171.7 151.7 214.3 149.3 257.2 143.8C300 138.3 343 129.7 385.8 130.7C428.7 131.7 471.3 142.3 514.2 149.3C557 156.3 600 159.7 642.8 157C685.7 154.3 728.3 145.7 771.2 140.8C814 136 857 135 878.5 134.5L900 134L900 0L878.5 0C857 0 814 0 771.2 0C728.3 0 685.7 0 642.8 0C600 0 557 0 514.2 0C471.3 0 428.7 0 385.8 0C343 0 300 0 257.2 0C214.3 0 171.7 0 128.8 0C86 0 43 0 21.5 0L0 0Z" fill="#fbbf24"></path><path d="M0 132L21.5 128.5C43 125 86 118 128.8 115C171.7 112 214.3 113 257.2 117C300 121 343 128 385.8 132.8C428.7 137.7 471.3 140.3 514.2 135C557 129.7 600 116.3 642.8 109.7C685.7 103 728.3 103 771.2 108.8C814 114.7 857 126.3 878.5 132.2L900 138L900 0L878.5 0C857 0 814 0 771.2 0C728.3 0 685.7 0 642.8 0C600 0 557 0 514.2 0C471.3 0 428.7 0 385.8 0C343 0 300 0 257.2 0C214.3 0 171.7 0 128.8 0C86 0 43 0 21.5 0L0 0Z" fill="#ff942f"></path><path d="M0 105L21.5 101.5C43 98 86 91 128.8 89.2C171.7 87.3 214.3 90.7 257.2 94.3C300 98 343 102 385.8 99.8C428.7 97.7 471.3 89.3 514.2 84.7C557 80 600 79 642.8 79C685.7 79 728.3 80 771.2 84.2C814 88.3 857 95.7 878.5 99.3L900 103L900 0L878.5 0C857 0 814 0 771.2 0C728.3 0 685.7 0 642.8 0C600 0 557 0 514.2 0C471.3 0 428.7 0 385.8 0C343 0 300 0 257.2 0C214.3 0 171.7 0 128.8 0C86 0 43 0 21.5 0L0 0Z" fill="#fa6a43"></path><path d="M0 62L21.5 62.5C43 63 86 64 128.8 65C171.7 66 214.3 67 257.2 65C300 63 343 58 385.8 56C428.7 54 471.3 55 514.2 58C557 61 600 66 642.8 67.5C685.7 69 728.3 67 771.2 64.3C814 61.7 857 58.3 878.5 56.7L900 55L900 0L878.5 0C857 0 814 0 771.2 0C728.3 0 685.7 0 642.8 0C600 0 557 0 514.2 0C471.3 0 428.7 0 385.8 0C343 0 300 0 257.2 0C214.3 0 171.7 0 128.8 0C86 0 43 0 21.5 0L0 0Z" fill="#e64357"></path><path d="M0 32L21.5 32.2C43 32.3 86 32.7 128.8 33.3C171.7 34 214.3 35 257.2 33.3C300 31.7 343 27.3 385.8 25.3C428.7 23.3 471.3 23.7 514.2 26C557 28.3 600 32.7 642.8 32.3C685.7 32 728.3 27 771.2 24.7C814 22.3 857 22.7 878.5 22.8L900 23L900 0L878.5 0C857 0 814 0 771.2 0C728.3 0 685.7 0 642.8 0C600 0 557 0 514.2 0C471.3 0 428.7 0 385.8 0C343 0 300 0 257.2 0C214.3 0 171.7 0 128.8 0C86 0 43 0 21.5 0L0 0Z" fill="#c62368"></path></svg>