<svg id="visual" viewBox="0 0 960 540" width="960" height="540" xmlns="http://www.w3.org/2000/svg" xmlns:xlink="http://www.w3.org/1999/xlink" version="1.1"><path d="M0 375L22.8 380.2C45.7 385.3 91.3 395.7 137 392.8C182.7 390 228.3 374 274 381.2C319.7 388.3 365.3 418.7 411.2 421.7C457 424.7 503 400.3 548.8 402.5C594.7 404.7 640.3 433.3 686 441C731.7 448.7 777.3 435.3 823 418.5C868.7 401.7 914.3 381.3 937.2 371.2L960 361L960 541L937.2 541C914.3 541 868.7 541 823 541C777.3 541 731.7 541 686 541C640.3 541 594.7 541 548.8 541C503 541 457 541 411.2 541C365.3 541 319.7 541 274 541C228.3 541 182.7 541 137 541C91.3 541 45.7 541 22.8 541L0 541Z" fill="#fbbf24" stroke-linecap="round" stroke-linejoin="miter"></path></svg>